<svg version="1.2" xmlns="http://www.w3.org/2000/svg" viewBox="0 0 1280 720" width="1280" height="720">
	<title>jamesp</title>
	<style>
		.s0 { fill: #6b7280 } 
		.s1 { fill: #ffffff } 
	</style>
	<path id="James Prentice" class="s0" aria-label="James
Prentice"  d="m439.2 285.3q-17.8-0.1-27.6-9.4-9.6-9.3-10.2-27.7v-0.6h20.4v0.9q0.6 9 4.7 13.4 4 4.3 12.7 4.3 9.5 0 13.5-5.3 4.1-5.4 4.1-18.9v-66h20.4v66.8q0 42.4-38 42.4zm117.9-2.2l-2.1-17.3q-10.2 19.5-35.2 19.5-13.8 0-21-6.1-7.2-6.2-7.2-17 0-14.2 11.2-21.1 3.5-2.4 7.4-3.6 6.1-2.3 22.3-4.7 12.2-1.5 16.8-3.7 4.8-2.3 4.8-7.4 0-11.7-18.1-11.7-20.4 0-21.3 17.3h-20.3q1.1-15 11.6-23.7 10.6-8.9 28.9-8.9 14 0 22.4 3.8 15.7 6.7 15.7 26.4v58.2zm-30.6-12.9q8.3 0 14.7-3.9 6.2-3.9 9.7-9.9 3.4-6 3.4-12.3v-4.7q-5.3 3.6-17.4 5.6-13.5 2.1-18.8 5.4-5.1 3.3-5.1 9 0 10.8 13.5 10.8zm84.4-33.3v46.2h-19.7v-86.3h16.5l1.8 15.8q7.6-17.9 27.3-17.9 21.2 0 27.2 18 7-18 27.9-18 15 0 22.7 9 7.9 9 7.9 25.4v54h-19.7v-48.6q0-22.7-18-22.7-18 0-18 22.4v48.9h-19.5v-49.4q0-6.3-1.7-11.1-3.1-10.8-15.9-10.8-9.2 0-14.1 6.8-4.7 6.7-4.7 18.3zm189.6 20.7h21.1q-3.7 13.4-14.2 20.5-10.5 7.2-27.3 7.2-21.5 0-32.4-11.3-11-11.6-11-32.2v-2.1q0-13.5 5.4-23.8 11.3-21.2 38.6-21.2 21.1 0 32.2 13.4 9.9 11.8 9.9 30v9.1h-66.6q1.2 10.7 7.5 16.4 6.5 5.6 17.1 5.6 15 0 19.7-11.6zm-19.7-47.3q-10.2 0-16.5 5.6-6.3 5.5-7.9 15.9h46.8q-2.3-21.5-22.4-21.5zm92.6 75q-38.1 0-42-30.7h21.3q1.3 7.5 6.4 10.9 5.3 3.3 14.7 3.3 17.6 0 17.6-11.1 0-4-3.3-6-4.2-2.5-20.1-4.8-15.5-2.4-22.2-6-10.5-5.5-10.5-18.9 0-12.3 9.1-19.8 9.2-7.5 26.4-7.5 34.5 0 38.4 27.9h-20.1q-1.9-12.1-18.4-12.1-16.1 0-16.1 10.3 0 4.1 3.3 6 4.2 2.4 20.3 4.8 15.4 2.4 22.2 6 10.5 5.6 10.5 18.9 0 13.1-9.6 21-9.5 7.8-27.9 7.8zm-490 144h-21.7v33.8h-19.4v-107h40.4q14.4 0 23.7 4.7 18.7 9 18.7 31.7 0 17.3-10.5 27.2-10.5 9.8-31.2 9.6zm-0.7-56.4h-21v39.6h21.4q10.8 0 16.5-5 5.9-5.3 5.9-15 0-9-5.9-14.3-5.7-5.3-16.9-5.3zm75.9 90.2h-19.4v-86.3h15.9l2.6 20.3q2.5-10.8 9.4-15.9 7.1-5.1 19.3-5.1h5.8v19.9h-8.6q-10.2 0-15.6 2.7-5.2 2.6-7.3 8.3-2.1 5.7-2.1 16.2zm103.6-25.5h21.2q-3.8 13.4-14.3 20.6-10.5 7.2-27.2 7.2-21.5 0-32.5-11.4-10.9-11.6-10.9-32.1v-2.2q0-13.5 5.4-23.8 11.2-21.2 38.6-21.2 21.1 0 32.2 13.4 9.9 11.9 9.9 30v9.1h-66.6q1.2 10.7 7.5 16.4 6.5 5.5 17.1 5.5 15 0 19.6-11.5zm-19.6-47.2q-10.2 0-16.5 5.5-6.3 5.6-8 15.9h46.9q-2.3-21.4-22.4-21.4zm76.4 27.7v45h-19.8v-86.2h16.6l1.8 17.2q7.6-19.4 29.2-19.4 15.5 0 23.8 9.5 8.2 9.4 8.2 25.8v53.1h-19.8v-48.3q0-11.3-4.3-17.1-4.2-5.8-14.3-5.8-10.8 0-16.2 6.8-5.2 6.9-5.2 19.4zm124.9 26.7v18.3h-11.1q-11.8 0-18.6-3.1-6.3-3.2-8.9-10.5-2.5-7.4-2.5-20.9v-34.4h-16.8v-16.6h7.7q4.1 0 6.1-0.9 3.6-1.7 4.2-11.7 0.3-7.5 0.3-11.4h16.8v23.3h22.8v17.3h-22.8v31.1q0 8.2 1.2 12.7 0.9 4.1 4.4 5.5 3.4 1.3 11.1 1.3zm24.4-77.3q-7.2 0-10.2-2.8-2.8-2.8-2.8-10.2 0-7.1 3.1-9.9 3.2-3 9.9-3 6.8 0 9.9 3 3.2 2.8 3.2 9.9 0 6.9-3.2 10-3.1 3-9.9 3zm9.8 95.6h-20v-86.2h20zm58.2 2.2q-20.7 0-32.1-11.2-11.3-11.4-11.3-32.4v-2.3q0-14.4 5.7-24.5 5.7-9.8 15.5-15 9.7-5.2 22.3-5.2 18.6 0 29.7 9.1 11.1 9 12.5 27.4v0.2h-20.6v-0.4q-2.5-19.5-21.4-19.5-10.7 0-17 7.4-6.3 7.2-6.3 20.5v1.9q0 12.8 6.2 19.9 6.1 6.9 16.9 6.9 18.8 0 21.8-19.9v-0.1h20.5v0.5q-1.3 18.4-12.6 27.6-11.2 9.1-29.8 9.1zm117.1-27.7h21.2q-3.8 13.3-14.3 20.5-10.5 7.2-27.3 7.2-21.4 0-32.4-11.4-10.9-11.6-10.9-32.1v-2.1q0-13.5 5.4-23.9 11.2-21.1 38.5-21.1 21.2 0 32.3 13.4 9.9 11.8 9.9 30v9.1h-66.6q1.2 10.6 7.5 16.4 6.4 5.5 17.1 5.5 15 0 19.6-11.5zm-19.6-47.3q-10.2 0-16.5 5.5-6.3 5.6-8 15.9h46.8q-2.2-21.4-22.3-21.4z"/>
	<path id="James Prentice" class="s1" aria-label="James
Prentice"  d="m446.3 284.3q-17.9-0.1-27.7-9.4-9.6-9.2-10.2-27.7v-0.6h20.4v0.9q0.6 9 4.7 13.4 4 4.3 12.7 4.3 9.5 0 13.5-5.3 4.1-5.4 4.1-18.9v-66h20.4v66.8q0 42.4-38 42.4zm117.9-2.2l-2.1-17.3q-10.1 19.5-35.2 19.5-13.8 0-21-6.1-7.2-6.2-7.2-16.9 0-14.3 11.3-21.2 3.4-2.4 7.3-3.6 6.2-2.3 22.3-4.7 12.2-1.5 16.9-3.7 4.7-2.3 4.7-7.4 0-11.7-18.1-11.7-20.4 0-21.3 17.3h-20.3q1.1-15 11.6-23.7 10.6-8.9 29-8.9 13.9 0 22.3 3.8 15.7 6.7 15.7 26.4v58.2zm-30.6-12.9q8.3 0 14.7-3.9 6.2-3.9 9.6-9.9 3.5-6 3.5-12.3v-4.7q-5.3 3.6-17.4 5.6-13.5 2.1-18.8 5.4-5.1 3.3-5.1 9 0 10.8 13.5 10.8zm84.3-33.3v46.2h-19.6v-86.3h16.5l1.8 15.8q7.6-17.9 27.3-17.9 21.2 0 27.2 18 7-18 27.8-18 15 0 22.8 9 7.9 9 7.9 25.4v54h-19.7v-48.6q0-22.7-18-22.7-18 0-18 22.4v48.9h-19.5v-49.4q0-6.3-1.7-11.1-3.1-10.8-15.9-10.8-9.2 0-14.1 6.8-4.8 6.7-4.8 18.3zm189.7 20.7h21.1q-3.7 13.3-14.2 20.5-10.5 7.2-27.3 7.2-21.5 0-32.4-11.4-11-11.5-11-32.1v-2.1q0-13.5 5.4-23.8 11.3-21.2 38.6-21.2 21.1 0 32.2 13.4 9.9 11.8 9.9 30v9.1h-66.6q1.2 10.7 7.5 16.4 6.5 5.5 17.1 5.5 15 0 19.7-11.5zm-19.7-47.3q-10.2 0-16.5 5.6-6.3 5.5-8 15.9h46.9q-2.3-21.5-22.4-21.5zm92.6 75q-38.2 0-42-30.7h21.3q1.3 7.5 6.4 10.9 5.3 3.3 14.7 3.3 17.6 0 17.6-11.1 0-4-3.3-6-4.2-2.5-20.1-4.8-15.5-2.4-22.3-6-10.5-5.5-10.5-18.9 0-12.3 9.2-19.8 9.2-7.5 26.4-7.5 34.5 0 38.4 27.9h-20.1q-1.9-12.1-18.4-12.1-16.1 0-16.1 10.3 0 4.1 3.3 6 4.2 2.4 20.3 4.8 15.4 2.4 22.2 6 10.5 5.6 10.5 18.9 0 13.1-9.6 21-9.5 7.8-27.9 7.8zm-490 144h-21.7v33.8h-19.4v-107h40.4q14.4 0 23.7 4.7 18.8 9 18.8 31.7 0 17.3-10.6 27.2-10.5 9.8-31.2 9.6zm-0.7-56.3h-21v39.6h21.4q10.8 0 16.5-5.1 5.9-5.3 5.9-15 0-9-5.9-14.3-5.7-5.2-16.9-5.2zm75.9 90.1h-19.4v-86.3h15.9l2.6 20.3q2.5-10.8 9.5-15.9 7-5.1 19.1-5.1h5.9v19.9h-8.5q-10.2 0-15.7 2.7-5.2 2.6-7.3 8.3-2.1 5.7-2.1 16.2zm103.6-25.5h21.2q-3.7 13.4-14.2 20.6-10.6 7.2-27.4 7.2-21.4 0-32.3-11.4-11-11.6-11-32.1v-2.2q0-13.5 5.4-23.8 11.3-21.2 38.6-21.2 21.1 0 32.2 13.4 9.9 11.9 9.9 30v9.1h-66.6q1.2 10.7 7.5 16.4 6.5 5.6 17.1 5.6 15 0 19.6-11.6zm-19.6-47.2q-10.2 0-16.5 5.5-6.3 5.6-7.9 15.9h46.8q-2.3-21.4-22.4-21.4zm76.4 27.7l-0.1 45h-19.7v-86.2h16.6l1.8 17.2q7.6-19.4 29.2-19.4 15.5 0 23.8 9.5 8.2 9.4 8.2 25.8v53.1h-19.8v-48.3q0-11.3-4.3-17.1-4.3-5.8-14.3-5.8-10.8 0-16.2 6.8-5.3 6.9-5.3 19.4zm125 26.7v18.3h-11.1q-11.9 0-18.6-3.1-6.3-3.2-8.9-10.5-2.5-7.4-2.5-20.9v-34.4h-16.8v-16.6h7.7q4.1 0 6.1-0.9 3.6-1.7 4.2-11.7 0.3-7.5 0.3-11.4h16.8v23.3h22.8v17.3h-22.8v31.1q0 8.2 1.2 12.7 0.9 4.1 4.4 5.5 3.4 1.3 11 1.3zm24.5-77.3q-7.2 0-10.2-2.8-2.9-2.8-2.9-10.2 0-7.1 3.2-9.9 3.1-3 9.9-3 6.7 0 9.9 3 3.1 2.8 3.1 9.9 0 6.9-3.1 10-3.2 3-9.9 3zm9.7 95.6h-19.9v-86.2h19.9zm58.2 2.2q-20.7 0-32.1-11.2-11.2-11.4-11.2-32.4v-2.3q0-14.4 5.7-24.5 5.7-9.8 15.4-15 9.8-5.2 22.4-5.2 18.6 0 29.7 9.1 11.1 9 12.4 27.4v0.2h-20.5v-0.4q-2.6-19.5-21.5-19.5-10.6 0-16.9 7.3-6.3 7.3-6.3 20.6v2q0 12.7 6.1 19.8 6.2 6.9 17 6.9 18.7 0 21.7-19.9v-0.1h20.6v0.5q-1.4 18.4-12.6 27.6-11.3 9.1-29.9 9.1zm117.2-27.7h21.1q-3.7 13.3-14.2 20.5-10.5 7.2-27.3 7.2-21.5 0-32.4-11.4-11-11.5-11-32.1v-2.1q0-13.5 5.4-23.9 11.3-21.1 38.6-21.1 21.1 0 32.2 13.4 10 11.8 10 30v9.1h-66.7q1.2 10.6 7.5 16.4 6.5 5.5 17.1 5.5 15 0 19.7-11.5zm-19.7-47.3q-10.2 0-16.5 5.5-6.3 5.6-7.9 15.9h46.8q-2.3-21.4-22.4-21.4z"/>
</svg>