<svg version="1.2" xmlns="http://www.w3.org/2000/svg" viewBox="0 0 1280 720" width="1280" height="720">
	<path id="Text layer 1" class="s0" ariaLabel="LOADING..."  d="m280.7 423v-109.4h14.8v96.9h53.3v12.5zm122.6-99.3q-16.1 0-25.7 12-9.4 12-9.4 32.7 0 20.7 9.4 32.7 9.6 12 25.7 12 16.1 0 25.5-12 9.4-12 9.4-32.7 0-20.7-9.4-32.7-9.4-12-25.5-12zm0-12q23 0 36.7 15.4 13.8 15.4 13.8 41.3 0 25.9-13.8 41.3-13.7 15.4-36.7 15.4-23.1 0-36.9-15.4-13.8-15.3-13.8-41.3 0-25.9 13.8-41.3 13.8-15.4 36.9-15.4zm127.7 70.9l-20.1-54.4-20.1 54.4zm-70.2 40.4l41.7-109.4h16.8l41.7 109.4h-15.4l-10-28.1h-49.3l-9.9 28.1zm148.8-97.2h-17.9v85h17.9q22.6 0 33.1-10.2 10.5-10.3 10.5-32.4 0-22-10.5-32.1-10.5-10.3-33.1-10.3zm-32.7 97.2v-109.4h30.4q31.8 0 46.7 13.3 14.8 13.2 14.8 41.3 0 28.3-14.9 41.5-14.9 13.3-46.6 13.3zm115.5 0v-109.4h14.8v109.4zm44.3 0v-109.4h19.9l48.5 91.5v-91.5h14.3v109.4h-19.9l-48.5-91.5v91.5zm186.8-15.6v-29.4h-24.2v-12.1h38.8v46.9q-8.5 6.1-18.9 9.2-10.3 3.1-22 3.1-25.7 0-40.2-14.9-14.4-15-14.4-41.8 0-26.8 14.4-41.7 14.5-15 40.2-15 10.7 0 20.3 2.6 9.6 2.6 17.8 7.8v15.7q-8.2-6.9-17.5-10.5-9.2-3.5-19.4-3.5-20 0-30.2 11.2-10 11.2-10 33.4 0 22.2 10 33.4 10.2 11.2 30.2 11.2 7.9 0 14-1.4 6.2-1.3 11.1-4.2zm43 15.6v-18.6h15.4v18.6zm47.7 0v-18.6h15.5v18.6zm47.6 0v-18.6h15.5v18.6z"/>
</svg>